<?xml version="1.0" standalone="no"?>
<!DOCTYPE svg PUBLIC "-//W3C//DTD SVG 20010904//EN"
 "http://www.w3.org/TR/2001/REC-SVG-20010904/DTD/svg10.dtd">
<svg version="1.0" xmlns="http://www.w3.org/2000/svg"
 width="308.000000pt" height="308.000000pt" viewBox="0 0 308.000000 308.000000"
 preserveAspectRatio="xMidYMid meet">
<metadata>
Created by potrace 1.14, written by Peter Selinger 2001-2017
</metadata>
<g transform="translate(0.000000,308.000000) scale(0.100000,-0.100000)"
fill="#000000" stroke="none">
<path d="M455 2719 c-137 -13 -247 -59 -323 -137 -219 -226 -95 -676 317
-1152 36 -41 82 -91 103 -111 l38 -35 0 -180 0 -179 137 1 138 0 3 47 c2 26 5
47 8 47 3 0 35 -24 72 -53 227 -180 507 -350 732 -445 30 -13 64 -28 75 -33
91 -41 338 -114 455 -134 82 -14 288 -17 357 -5 208 35 350 175 359 355 l3 60
-8 -50 c-22 -132 -86 -223 -200 -284 -127 -67 -309 -82 -521 -41 -140 26 -262
64 -425 130 -46 19 -314 151 -355 176 -321 190 -525 347 -770 593 -224 225
-353 394 -459 601 -124 242 -147 438 -70 597 41 84 110 144 214 185 78 32 84
32 237 33 86 0 154 2 152 4 -8 9 -203 16 -269 10z"/>
<path d="M547 2655 c-1 -2 -32 -5 -68 -8 -124 -11 -252 -85 -303 -177 -51 -91
-54 -239 -6 -381 83 -248 247 -487 525 -764 374 -375 851 -677 1290 -818 385
-124 676 -105 809 53 49 58 68 117 72 220 3 83 2 89 -7 50 -22 -95 -42 -135
-88 -178 -139 -130 -466 -112 -841 46 -100 42 -328 157 -351 178 -8 8 -19 14
-23 14 -14 0 -253 164 -353 243 -409 319 -708 698 -783 992 -55 212 21 362
205 410 64 17 236 19 303 5 21 -5 54 -11 74 -14 54 -8 219 -62 328 -108 133
-55 296 -142 444 -236 69 -45 126 -79 126 -77 0 6 -220 153 -280 188 -404 233
-726 348 -1013 361 -31 1 -58 2 -60 1z"/>
<path d="M1635 1990 l-320 -5 2 -105 c0 -58 1 -111 2 -117 1 -10 34 -13 130
-13 l130 0 0 -406 c0 -224 3 -409 6 -412 7 -7 244 -9 255 -2 4 3 8 172 8 375
0 204 1 387 1 408 l1 37 130 0 130 0 0 119 0 119 -77 4 c-43 2 -222 1 -398 -2z"/>
<path d="M590 1934 c0 -40 6 -67 22 -93 27 -45 153 -215 182 -245 12 -12 52
-56 91 -97 38 -41 107 -109 153 -151 78 -73 86 -78 128 -78 l44 0 0 124 0 123
-147 1 c-82 0 -158 0 -170 1 -22 1 -23 4 -23 116 l0 115 192 2 193 3 0 115 0
115 -333 3 -332 2 0 -56z"/>
<path d="M2162 1598 l3 -393 26 -55 c113 -242 487 -300 696 -107 47 43 85 108
99 167 4 19 8 203 9 408 l1 372 -128 0 -127 0 -3 -369 -3 -369 -25 -27 c-52
-56 -140 -71 -217 -36 -73 34 -73 33 -73 441 l0 360 -131 0 -130 0 3 -392z"/>
</g>
</svg>
